<?xml version="1.0" encoding="UTF-8"?>
<svg id="Layer_1" data-name="Layer 1" xmlns="http://www.w3.org/2000/svg" version="1.1" viewBox="0 0 580 188">
  <defs>
    <style>
      .cls-1 {
        fill: #f9d601;
      }

      .cls-1, .cls-2, .cls-3, .cls-4, .cls-5 {
        stroke-width: 0px;
      }

      .cls-2 {
        fill: #f6fcf6;
      }

      .cls-6 {
        fill: #286090;
        stroke: #000;
        stroke-miterlimit: 10;
      }

      .cls-3 {
        fill: #4bc14a;
      }

      .cls-4 {
        fill: #fff;
      }

      .cls-5 {
        fill: #f8d501;
      }
    </style>
  </defs>
  <rect class="cls-6" width="580" height="188"/>
  <path class="cls-4" d="M92,76c-.4,2.1-.9,4.3-1.4,6.4q-.4,1.8-.8,3.6t-2.9,5c-1-.6-2-1.3-3.1-1.9-3.6-2.1-6.7-2.9-10.9-3.1l-3,2q.1,1.9,1,4,2.2,1.6,4.8,2.9c3.9,2.2,6.8,4.1,9.2,8.1.4,1.7.7,3.3,1,5,.3-1,.5-2,.8-3.1,1-3.8,2-7.6,3-11.4.4-1.6.9-3.3,1.3-4.9.6-2.4,1.2-4.7,1.9-7.1.2-.7.4-1.5.6-2.2q1.4-5.2,2.5-6.3c1.6,0,3.1-.1,4.7,0,.9,0,1.9,0,2.9,0,1,0,2,0,3,0,1,0,2,0,3,0,2.5,0,4.9,0,7.4,0-.3,2.6-.7,5.3-1,8,.4-.6.9-1.1,1.4-1.7q6.3-7.6,10.6-8.3c5.1-.2,8.9.5,12.9,3.8,5.4,5.3,5.5,11,6.1,18.2.3-.6.5-1.3.8-1.9,3.6-8,8.1-13.7,16.1-17.5,10.2-3.7,19-3.6,29.1.4,5.8,2.9,9,7.4,12,13,2.6,7.8,1.3,16-1.7,23.4-4,7.7-10.4,13.5-18.6,16.4-9,2.2-19.3,1.8-27.7-2.4-5.5-3.8-9.6-8.8-11-15.4-.3-2.3-.7-4.7-1-7-.4.9-.8,1.9-1.2,2.8-4.8,10.4-9.7,16.9-20.6,21.5-4.7,1.6-9,1.8-14,1.8-1.2,0-2.3,0-3.5,0-.9,0-1.8,0-2.7,0-.1.6-.3,1.1-.4,1.7-.7,2.6-1.3,5.1-2,7.7-.2.9-.5,1.8-.7,2.7-.2.9-.4,1.7-.7,2.6-.2.8-.4,1.6-.6,2.4q-.6,1.9-1.6,2.9c-1.6,0-3.1.1-4.7,0-.9,0-1.9,0-2.9,0-1,0-2,0-3,0-1,0-2,0-3,0-2.5,0-4.9,0-7.4,0,1.3-6.9,2.9-13.8,4.6-20.6.2-.9.5-1.8.7-2.8.6-2.2,1.1-4.4,1.7-6.6-.8.8-1.5,1.6-2.3,2.4-5.7,5.5-11.5,7.3-19.4,7.7-8.2-.3-15.3-1.9-22.3-6.1,1.3-5,2.6-9.9,4-15,2.8,1.1,5.6,2.3,8.3,3.6,4.3,1.6,7.1,1.6,11.7,1.4.3-1.7.7-3.3,1-5-.7-.2-1.3-.4-2-.6-5.7-2.6-11.7-6.4-14-12.4-.6-5.5.4-9.2,3-14,9.7-11.6,28.7-12.2,41-4ZM113,88q-1,2.1-1.6,4.6c-.3.9-.5,1.8-.8,2.8-.3,1-.5,1.9-.8,2.9q-.4,1.4-.9,2.9-1.8,5.8-.9,11.7c5.3-.4,8.4-1.1,12-5,3.2-5.4,4.9-10.7,5-17q-.8-3.1-3-5c-4.1-.6-5.5-.3-9,2ZM171.1,90.1c-3.4,6-4.9,12.1-4.1,18.9q1.4,2.7,4,4c4,0,6.2-.3,9.2-2.9,3.2-5.7,5.7-12.5,4.8-19.1q-.9-2.9-3-5c-5.2-1-7.8-.3-10.9,4.1ZM84,114l1,2-1-2Z"/>
  <path class="cls-5" d="M528.9,42.6c5.8,3.9,9.8,9.2,11.7,16,1.1,7.2.2,13.6-4.1,19.6-4.8,5.7-9.4,9.2-17,10.1-8.8.5-14.7-2.5-21.7-7.6-.6-.6-1.2-1.1-1.9-1.7-.1,1.3-.3,2.6-.4,3.9-.3,2.4-.5,4-1.6,6.1q-2.5.4-5.6.6c-1,0-2,.1-3.1.2-.8,0-1.6,0-2.4.1-.7,2.4-1.3,4.8-2,7.2-.2.7-.4,1.3-.6,2-1,3.7-1.7,7-1.4,10.8,5.3,2.3,9.4,1.9,15,1-1.6,3.8-4,6.6-6.8,9.6-.8,1-1.7,1.9-2.5,2.9-4.4,4-8.8,4.9-14.7,4.7-4.9-.6-8.2-2.6-12-5.6-3.6-4.9-2.8-10.9-2.1-16.6,1.3-5.8,3.1-11.4,5-17h-7c0,.7,0,1.3-.1,2,0,.9-.1,1.8-.2,2.7,0,.9-.1,1.7-.2,2.6q-.4,2.7-2.4,7.7h-32q1.3,5.9,4.4,7.6c7.9,1,15.5-2.4,22.6-5.6h3c-.7,2.7-1.4,5.4-2.2,8-.5,1.8-1,3.6-1.3,5.4-.6,2.2-1.1,3.8-2.5,5.6-3.2,1.7-6.4,2.4-10,3-.8.2-1.6.3-2.5.5-7.7,1.1-15.1.4-21.9-3.3-5.6-4.7-8.6-9.4-9.4-16.7-.7-10.5,2-19.5,8.8-27.5,6-6.5,12.6-10.5,21.5-11.3,7.2-.2,12.7,0,18.3,5,3,3.6,5,6.7,6.2,11.4,5-4.7,10-9.8,12.1-16.5,1.4-3.4,3.2-4.4,6.5-6,1.8-.7,3.6-1.4,5.4-2,.9-.3,1.8-.7,2.8-1.1q6.7-2.5,10.2-2.5c-.5,2.1-1,4.3-1.4,6.4-.3,1.2-.5,2.4-.8,3.6q-.8,3-1.8,5h7c-.3-1-.7-2-1-3-.9-8.4,0-15,5-22,7.9-9,20.5-10.7,30.9-5.4ZM426.2,87.4c-.7.8-1.4,1.7-2.2,2.6h11c-.3-1.3-.7-2.6-1-4-3.9-1.4-4.6-1.4-7.8,1.4Z"/>
  <path class="cls-4" d="M291,58c-.5,2.1-1,4.3-1.4,6.4-.3,1.2-.5,2.4-.8,3.6q-.8,3-1.8,5h11l-4,16c-3.6.3-7.3.7-11,1-.7,2.4-1.3,4.8-2,7.2-.2.7-.4,1.3-.6,2-1,3.7-1.7,7-1.4,10.8,4.2,1.6,7.5,2.2,12,2,.3-1.7.7-3.3,1-5,2.8,1.1,5.6,2.3,8.3,3.6,4.3,1.6,7.1,1.6,11.7,1.4.3-1,.7-2,1-3-2.9-3.1-6.3-5.2-9.8-7.4-2.9-2.2-4.7-4.2-5.8-7.7-.6-5.5-.2-9,2.6-13.9,4.4-5.3,9.2-7.9,16-9,8.7-.7,17.6,0,25,5-.4,2.1-.9,4.3-1.4,6.4q-.4,1.8-.8,3.6t-2.9,5c-1-.6-2-1.3-3.1-1.9-3.6-2.1-6.7-2.9-10.9-3.1l-3,2q.1,1.9,1,4,2.2,1.6,4.8,2.9,7.3,4.2,9.2,8.1c.9,5.9.8,11.5-2.6,16.5-4.9,5.3-11.3,7.9-18.4,8.5-8.1,0-16.9-.7-24-5q-.8-2.1-1-4c-.4.5-.7,1-1.1,1.5-3.3,4.1-5.5,6.6-10.9,7.5-7.3.6-12.1-.7-17.9-5.4-3.6-4.9-2.8-10.9-2.1-16.6,1.3-5.8,3.1-11.4,5-17h-7c1.8-5.4,5.1-8.9,8.8-13.1q2.4-2.8,3.4-6.5c2.7-5.1,6.6-6,11.8-7.9.9-.3,1.8-.7,2.8-1.1q6.7-2.5,10.2-2.5Z"/>
  <path class="cls-1" d="M352,48h23q-1.9,8.2-2.5,10.7c-.9,3.7-1.7,7.5-2.5,11.3,1.1,0,2.1,0,3.2-.1q14.3-.4,20.8,4.1c4.4,4.4,6.1,9,6.3,15.2-.3,11.2-5,22.9-12.5,31.2-5.7,5-12.1,8.7-19.8,8.9-1.1,0-2.1,0-3.2.1q-2.8-.4-4.7-2.3c-1.3-2.3-2.3-4.7-3.2-7.2-1,2.6-2,5.3-3,8h-23c6.8-26.7,13.9-53.4,21-80ZM364,87q-1.2,2.3-1.8,5.1c-.3,1-.5,2-.8,3.1q-.4,1.6-.8,3.2c-.3,1.1-.5,2.1-.8,3.2q-1.7,6.2-.8,12.4c3.8.3,6.3.4,9.7-1.5,4.8-5.1,7.4-11.5,7.6-18.5,0-.9,0-1.7,0-2.6-.4-2.8-1.1-3.6-3.3-5.4-3.5-1.5-5.7-.8-9,1Z"/>
  <path class="cls-3" d="M528.9,42.6c5.8,3.9,9.8,9.2,11.7,16,1.1,7.2.2,13.6-4.1,19.6-4.8,5.7-9.4,9.2-17,10.1-8.5.5-14.4-2.2-21.2-7.2-1.8-2.8-1.7-4.8-1.4-8.1h-3c-2.3-6.8-1.9-14,1.1-20.4,7-12.2,21.2-16.4,33.8-9.9Z"/>
  <path class="cls-4" d="M250,71.9c.9,0,1.8,0,2.7,0q2.3.1,4.3,1.1c-.6,2.8-1.3,5.5-1.9,8.3-.2.8-.4,1.6-.6,2.4l-.5,2.3c-.2.7-.3,1.4-.5,2.1-.4,1.7-.9,3.3-1.5,4.9q-5-2-7.2-3.1c-3.9-1.3-7.7-1-11.8-.9-2.6,7.4-4.6,14.9-6.6,22.4-.6,2.3-1.2,4.7-1.9,7-.3,1-.5,2-.8,3.1q-.7,2.5-1.7,4.5h-22q9.4-36.9,14-53h22c-.3,2.6-.7,5.3-1,8q.8-.8,1.7-1.7c.7-.7,1.4-1.5,2.2-2.2.7-.7,1.4-1.5,2.2-2.2,3-2.9,4.9-3,8.9-3Z"/>
  <path class="cls-2" d="M528,51c1.6,1.3,3.3,2.6,5,4-1.5,3.5-3.5,5.7-6.1,8.3q-1.2,1.2-2.4,2.4c-.8.8-1.7,1.6-2.6,2.5-.8.8-1.7,1.7-2.6,2.5-2.1,2.1-4.2,4.1-6.3,6.2-3.6-1.7-5.9-3.7-8.8-6.6-.8-.8-1.6-1.6-2.4-2.5-.6-.6-1.2-1.3-1.8-1.9,1.3-1.6,2.6-3.3,4-5,2.9,1.3,4.9,2.7,7,5,2.9-1.3,5-2.7,7.2-5,.6-.6,1.1-1.2,1.7-1.8.6-.6,1.2-1.2,1.8-1.8.6-.6,1.2-1.2,1.8-1.9,1.5-1.5,3-3,4.4-4.5Z"/>
</svg>